<svg width="392" height="72" viewBox="0 0 392 72" fill="none" xmlns="http://www.w3.org/2000/svg">
<path d="M84.952 7.60001H96.256L101.296 43.672H101.44L106.48 7.60001H117.784V58H110.296V19.84H110.152L104.392 58H97.768L92.008 19.84H91.864V58H84.952V7.60001ZM129.814 7.60001H140.542L148.75 58H140.83L139.39 47.992V48.136H130.39L128.95 58H121.606L129.814 7.60001ZM138.454 41.296L134.926 16.384H134.782L131.326 41.296H138.454ZM152.593 7.60001H160.513V28.12H169.009V7.60001H176.929V58H169.009V35.32H160.513V58H152.593V7.60001ZM188.947 7.60001H199.675L207.883 58H199.963L198.523 47.992V48.136H189.523L188.083 58H180.739L188.947 7.60001ZM197.587 41.296L194.059 16.384H193.915L190.459 41.296H197.587ZM218.197 7.60001H228.925L237.133 58H229.213L227.773 47.992V48.136H218.773L217.333 58H209.989L218.197 7.60001ZM226.837 41.296L223.309 16.384H223.165L219.709 41.296H226.837ZM240.975 7.60001H250.911L258.615 37.768H258.759V7.60001H265.815V58H257.679L248.175 21.208H248.031V58H240.975V7.60001ZM283.233 7.60001H291.153V28.84L301.233 7.60001H309.153L299.721 26.104L309.297 58H301.017L294.321 35.536L291.153 41.944V58H283.233V7.60001ZM323.369 58.72C319.481 58.72 316.505 57.616 314.441 55.408C312.377 53.2 311.345 50.08 311.345 46.048V19.552C311.345 15.52 312.377 12.4 314.441 10.192C316.505 7.984 319.481 6.88 323.369 6.88C327.257 6.88 330.233 7.984 332.297 10.192C334.361 12.4 335.393 15.52 335.393 19.552V46.048C335.393 50.08 334.361 53.2 332.297 55.408C330.233 57.616 327.257 58.72 323.369 58.72ZM323.369 51.52C326.105 51.52 327.473 49.864 327.473 46.552V19.048C327.473 15.736 326.105 14.08 323.369 14.08C320.633 14.08 319.265 15.736 319.265 19.048V46.552C319.265 49.864 320.633 51.52 323.369 51.52ZM351.045 58.72C347.205 58.72 344.301 57.64 342.333 55.48C340.365 53.272 339.381 50.128 339.381 46.048V43.168H346.869V46.624C346.869 49.888 348.237 51.52 350.973 51.52C352.317 51.52 353.325 51.136 353.997 50.368C354.717 49.552 355.077 48.256 355.077 46.48C355.077 44.368 354.597 42.52 353.637 40.936C352.677 39.304 350.901 37.36 348.309 35.104C345.045 32.224 342.765 29.632 341.469 27.328C340.173 24.976 339.525 22.336 339.525 19.408C339.525 15.424 340.533 12.352 342.549 10.192C344.565 7.984 347.493 6.88 351.333 6.88C355.125 6.88 357.981 7.984 359.901 10.192C361.869 12.352 362.853 15.472 362.853 19.552V21.64H355.365V19.048C355.365 17.32 355.029 16.072 354.357 15.304C353.685 14.488 352.701 14.08 351.405 14.08C348.765 14.08 347.445 15.688 347.445 18.904C347.445 20.728 347.925 22.432 348.885 24.016C349.893 25.6 351.693 27.52 354.285 29.776C357.597 32.656 359.877 35.272 361.125 37.624C362.373 39.976 362.997 42.736 362.997 45.904C362.997 50.032 361.965 53.2 359.901 55.408C357.885 57.616 354.933 58.72 351.045 58.72ZM367.538 7.60001H375.458V28.12H383.954V7.60001H391.874V58H383.954V35.32H375.458V58H367.538V7.60001Z" fill="#233D4D"/>
<path d="M36 72C55.8823 72 72 55.8823 72 36C72 16.1177 55.8823 0 36 0C16.1177 0 0 16.1177 0 36C0 55.8823 16.1177 72 36 72Z" fill="#233D4D"/>
<mask id="mask0_2405_10" style="mask-type:alpha" maskUnits="userSpaceOnUse" x="0" y="0" width="72" height="72">
<path d="M36 72C55.8823 72 72 55.8823 72 36C72 16.1177 55.8823 0 36 0C16.1177 0 0 16.1177 0 36C0 55.8823 16.1177 72 36 72Z" fill="#233D4D"/>
</mask>
<g mask="url(#mask0_2405_10)">
<path fill-rule="evenodd" clip-rule="evenodd" d="M14 28.1844C16.2559 26.6226 21.809 24.4361 25.9738 28.1844C27.4174 29.9889 27.9041 32.2205 27.5356 34.4316C23.8914 37.5552 20.2472 40.6788 20.2043 43.8024C20.1971 44.3317 20.3147 45.1546 21.2884 45.8848C23.3708 47.4466 27.5356 47.4466 32.7416 36.514H39.5094V58.3792C39.3359 62.3705 36.3858 72.2272 25.9738 79.7238C30.1386 78.8561 43.6742 70.353 45.236 55.2556V32.3492C45.236 30.2668 45.236 25.9692 48.8802 26.102C52.5244 26.2348 55.1274 26.102 55.1274 26.102L59.2922 22.4578C55.995 21.7637 49.9214 21.9372 47.3184 22.4578C47.2825 22.465 47.2448 22.4722 47.2053 22.4798C45.9874 22.7134 43.0718 23.2727 40.5506 32.3492H32.7416C33.7828 28.705 33.7828 21.9372 25.9738 22.4578C22.8502 22.4578 16.0824 23.1867 14 28.1844ZM26.9754 39.0225C26.1746 38.7411 24.4022 41.1807 25.2031 41.9486C25.7172 42.4416 27.2088 39.2314 26.9754 39.0225Z" fill="white"/>
</g>
</svg>
