<svg width="395" height="86" viewBox="0 0 395 86" fill="none" xmlns="http://www.w3.org/2000/svg">
<path d="M84.952 14.6H96.256L101.296 50.672H101.44L106.48 14.6H117.784V65H110.296V26.84H110.152L104.392 65H97.768L92.008 26.84H91.864V65H84.952V14.6ZM129.814 14.6H140.542L148.75 65H140.83L139.39 54.992V55.136H130.39L128.95 65H121.606L129.814 14.6ZM138.454 48.296L134.926 23.384H134.782L131.326 48.296H138.454ZM152.593 14.6H160.513V35.12H169.009V14.6H176.929V65H169.009V42.32H160.513V65H152.593V14.6ZM188.947 14.6H199.675L207.883 65H199.963L198.523 54.992V55.136H189.523L188.083 65H180.739L188.947 14.6ZM197.587 48.296L194.059 23.384H193.915L190.459 48.296H197.587ZM218.197 14.6H228.925L237.133 65H229.213L227.773 54.992V55.136H218.773L217.333 65H209.989L218.197 14.6ZM226.837 48.296L223.309 23.384H223.165L219.709 48.296H226.837ZM240.975 14.6H250.911L258.615 44.768H258.759V14.6H265.815V65H257.679L248.175 28.208H248.031V65H240.975V14.6ZM283.233 14.6H291.153V35.84L301.233 14.6H309.153L299.721 33.104L309.297 65H301.017L294.321 42.536L291.153 48.944V65H283.233V14.6ZM323.369 65.72C319.481 65.72 316.505 64.616 314.441 62.408C312.377 60.2 311.345 57.08 311.345 53.048V26.552C311.345 22.52 312.377 19.4 314.441 17.192C316.505 14.984 319.481 13.88 323.369 13.88C327.257 13.88 330.233 14.984 332.297 17.192C334.361 19.4 335.393 22.52 335.393 26.552V53.048C335.393 57.08 334.361 60.2 332.297 62.408C330.233 64.616 327.257 65.72 323.369 65.72ZM323.369 58.52C326.105 58.52 327.473 56.864 327.473 53.552V26.048C327.473 22.736 326.105 21.08 323.369 21.08C320.633 21.08 319.265 22.736 319.265 26.048V53.552C319.265 56.864 320.633 58.52 323.369 58.52ZM351.045 65.72C347.205 65.72 344.301 64.64 342.333 62.48C340.365 60.272 339.381 57.128 339.381 53.048V50.168H346.869V53.624C346.869 56.888 348.237 58.52 350.973 58.52C352.317 58.52 353.325 58.136 353.997 57.368C354.717 56.552 355.077 55.256 355.077 53.48C355.077 51.368 354.597 49.52 353.637 47.936C352.677 46.304 350.901 44.36 348.309 42.104C345.045 39.224 342.765 36.632 341.469 34.328C340.173 31.976 339.525 29.336 339.525 26.408C339.525 22.424 340.533 19.352 342.549 17.192C344.565 14.984 347.493 13.88 351.333 13.88C355.125 13.88 357.981 14.984 359.901 17.192C361.869 19.352 362.853 22.472 362.853 26.552V28.64H355.365V26.048C355.365 24.32 355.029 23.072 354.357 22.304C353.685 21.488 352.701 21.08 351.405 21.08C348.765 21.08 347.445 22.688 347.445 25.904C347.445 27.728 347.925 29.432 348.885 31.016C349.893 32.6 351.693 34.52 354.285 36.776C357.597 39.656 359.877 42.272 361.125 44.624C362.373 46.976 362.997 49.736 362.997 52.904C362.997 57.032 361.965 60.2 359.901 62.408C357.885 64.616 354.933 65.72 351.045 65.72ZM367.538 14.6H375.458V35.12H383.954V14.6H391.874V65H383.954V42.32H375.458V65H367.538V14.6Z" fill="#233D4D"/>
<circle cx="36" cy="43" r="36" fill="#233D4D"/>
<mask id="mask0_6_8" style="mask-type:alpha" maskUnits="userSpaceOnUse" x="0" y="7" width="72" height="72">
<circle cx="36" cy="43" r="36" fill="#233D4D"/>
</mask>
<g mask="url(#mask0_6_8)">
<path fill-rule="evenodd" clip-rule="evenodd" d="M14 35.1844C16.2559 33.6226 21.809 31.4361 25.9738 35.1844C27.4174 36.9889 27.9041 39.2205 27.5356 41.4316L27.5356 41.4316C23.8914 44.5552 20.2472 47.6788 20.2043 50.8024C20.1971 51.3317 20.3147 52.1546 21.2884 52.8848C23.3708 54.4466 27.5356 54.4466 32.7416 43.514H39.5094V65.3792C39.3359 69.3705 36.3858 79.2272 25.9738 86.7238C30.1386 85.8561 43.6742 77.353 45.236 62.2556V39.3492C45.236 37.2668 45.236 32.9692 48.8802 33.102C52.5244 33.2348 55.1274 33.102 55.1274 33.102L59.2922 29.4578C55.995 28.7637 49.9214 28.9372 47.3184 29.4578C47.2825 29.465 47.2448 29.4722 47.2053 29.4798C45.9874 29.7134 43.0718 30.2727 40.5506 39.3492H32.7416C33.7828 35.705 33.7828 28.9372 25.9738 29.4578C22.8502 29.4578 16.0824 30.1867 14 35.1844ZM26.9754 46.0225C26.1746 45.7411 24.4022 48.1807 25.2031 48.9486C25.7172 49.4416 27.2088 46.2314 26.9754 46.0225Z" fill="white"/>
</g>
</svg>
