<svg width="72" height="72" viewBox="0 0 72 72" fill="none" xmlns="http://www.w3.org/2000/svg">
<circle cx="36" cy="36" r="36" fill="#233D4D"/>
<mask id="mask0_1_13" style="mask-type:alpha" maskUnits="userSpaceOnUse" x="0" y="0" width="72" height="72">
<circle cx="36" cy="36" r="36" fill="#233D4D"/>
</mask>
<g mask="url(#mask0_1_13)">
<path fill-rule="evenodd" clip-rule="evenodd" d="M14 28.1844C16.2559 26.6226 21.809 24.4361 25.9738 28.1844C27.4174 29.9889 27.9041 32.2205 27.5356 34.4316L27.5356 34.4316C23.8914 37.5552 20.2472 40.6788 20.2043 43.8024C20.1971 44.3317 20.3147 45.1546 21.2884 45.8848C23.3708 47.4466 27.5356 47.4466 32.7416 36.514H39.5094V58.3792C39.3359 62.3705 36.3858 72.2272 25.9738 79.7238C30.1386 78.8561 43.6742 70.353 45.236 55.2556V32.3492C45.236 30.2668 45.236 25.9692 48.8802 26.102C52.5244 26.2348 55.1274 26.102 55.1274 26.102L59.2922 22.4578C55.995 21.7637 49.9214 21.9372 47.3184 22.4578C47.2825 22.465 47.2448 22.4722 47.2053 22.4798C45.9874 22.7134 43.0718 23.2727 40.5506 32.3492H32.7416C33.7828 28.705 33.7828 21.9372 25.9738 22.4578C22.8502 22.4578 16.0824 23.1867 14 28.1844ZM26.9754 39.0225C26.1746 38.7411 24.4022 41.1807 25.2031 41.9486C25.7172 42.4416 27.2088 39.2314 26.9754 39.0225Z" fill="white"/>
</g>
</svg>
