<svg width="363" height="72" viewBox="0 0 363 72" fill="none" xmlns="http://www.w3.org/2000/svg">
<path d="M338.288 7.60001H346.208V28.12H354.704V7.60001H362.624V58H354.704V35.32H346.208V58H338.288V7.60001Z" fill="#233D4D"/>
<path d="M321.795 58.72C317.955 58.72 315.051 57.64 313.083 55.48C311.115 53.272 310.131 50.128 310.131 46.048V43.168H317.619V46.624C317.619 49.888 318.987 51.52 321.723 51.52C323.067 51.52 324.075 51.136 324.747 50.368C325.467 49.552 325.827 48.256 325.827 46.48C325.827 44.368 325.347 42.52 324.387 40.936C323.427 39.304 321.651 37.36 319.059 35.104C315.795 32.224 313.515 29.632 312.219 27.328C310.923 24.976 310.275 22.336 310.275 19.408C310.275 15.424 311.283 12.352 313.299 10.192C315.315 7.984 318.243 6.88 322.083 6.88C325.875 6.88 328.731 7.984 330.651 10.192C332.619 12.352 333.603 15.472 333.603 19.552V21.64H326.115V19.048C326.115 17.32 325.779 16.072 325.107 15.304C324.435 14.488 323.451 14.08 322.155 14.08C319.515 14.08 318.195 15.688 318.195 18.904C318.195 20.728 318.675 22.432 319.635 24.016C320.643 25.6 322.443 27.52 325.035 29.776C328.347 32.656 330.627 35.272 331.875 37.624C333.123 39.976 333.747 42.736 333.747 45.904C333.747 50.032 332.715 53.2 330.651 55.408C328.635 57.616 325.683 58.72 321.795 58.72Z" fill="#233D4D"/>
<path d="M294.119 58.72C290.231 58.72 287.255 57.616 285.191 55.408C283.127 53.2 282.095 50.08 282.095 46.048V19.552C282.095 15.52 283.127 12.4 285.191 10.192C287.255 7.984 290.231 6.88 294.119 6.88C298.007 6.88 300.983 7.984 303.047 10.192C305.111 12.4 306.143 15.52 306.143 19.552V46.048C306.143 50.08 305.111 53.2 303.047 55.408C300.983 57.616 298.007 58.72 294.119 58.72ZM294.119 51.52C296.855 51.52 298.223 49.864 298.223 46.552V19.048C298.223 15.736 296.855 14.08 294.119 14.08C291.383 14.08 290.015 15.736 290.015 19.048V46.552C290.015 49.864 291.383 51.52 294.119 51.52Z" fill="#233D4D"/>
<path d="M253.983 7.60001H261.903V28.84L271.983 7.60001H279.903L270.471 26.104L280.047 58H271.767L265.071 35.536L261.903 41.944V58H253.983V7.60001Z" fill="#233D4D"/>
<path d="M211.725 7.60001H221.661L229.365 37.768H229.509V7.60001H236.565V58H228.429L218.925 21.208H218.781V58H211.725V7.60001Z" fill="#233D4D"/>
<path d="M188.947 7.60001H199.675L207.883 58H199.963L198.523 47.992V48.136H189.523L188.083 58H180.739L188.947 7.60001ZM197.587 41.296L194.059 16.384H193.915L190.459 41.296H197.587Z" fill="#233D4D"/>
<path d="M152.593 7.60001H160.513V28.12H169.009V7.60001H176.929V58H169.009V35.32H160.513V58H152.593V7.60001Z" fill="#233D4D"/>
<path d="M129.814 7.60001H140.542L148.75 58H140.83L139.39 47.992V48.136H130.39L128.95 58H121.606L129.814 7.60001ZM138.454 41.296L134.926 16.384H134.782L131.326 41.296H138.454Z" fill="#233D4D"/>
<path d="M84.952 7.60001H96.256L101.296 43.672H101.44L106.48 7.60001H117.784V58H110.296V19.84H110.152L104.392 58H97.768L92.008 19.84H91.864V58H84.952V7.60001Z" fill="#233D4D"/>
<circle cx="36" cy="36" r="36" fill="#233D4D"/>
<mask id="mask0_2008_2" style="mask-type:alpha" maskUnits="userSpaceOnUse" x="0" y="0" width="72" height="72">
<circle cx="36" cy="36" r="36" fill="#233D4D"/>
</mask>
<g mask="url(#mask0_2008_2)">
<path fill-rule="evenodd" clip-rule="evenodd" d="M14 28.1844C16.2559 26.6226 21.809 24.4361 25.9738 28.1844C27.4174 29.9889 27.9041 32.2205 27.5356 34.4316L27.5356 34.4316C23.8914 37.5552 20.2472 40.6788 20.2043 43.8024C20.1971 44.3317 20.3147 45.1546 21.2884 45.8848C23.3708 47.4466 27.5356 47.4466 32.7416 36.514H39.5094V58.3792C39.3359 62.3705 36.3858 72.2272 25.9738 79.7238C30.1386 78.8561 43.6742 70.353 45.236 55.2556V32.3492C45.236 30.2668 45.236 25.9692 48.8802 26.102C52.5244 26.2348 55.1274 26.102 55.1274 26.102L59.2922 22.4578C55.995 21.7637 49.9214 21.9372 47.3184 22.4578C47.2825 22.465 47.2448 22.4722 47.2053 22.4798C45.9874 22.7134 43.0718 23.2727 40.5506 32.3492H32.7416C33.7828 28.705 33.7828 21.9372 25.9738 22.4578C22.8502 22.4578 16.0824 23.1867 14 28.1844ZM26.9754 39.0225C26.1746 38.7411 24.4022 41.1807 25.2031 41.9486C25.7172 42.4416 27.2088 39.2314 26.9754 39.0225Z" fill="white"/>
</g>
</svg>
